<svg width="300" height="300" viewBox="0 0 300 300" fill="none" xmlns="http://www.w3.org/2000/svg">
   <path d="M21.3068 129.547L26.0905 144.858H41.5708L29.047 154.321L33.8307 169.633L21.3068 160.17L8.78298 169.633L13.5667 154.321L1.04283 144.858H16.5231L21.3068 129.547Z" fill="black"/>
   <path d="M261.648 192.613L266.431 207.925H281.912L269.388 217.388L274.171 232.699L261.648 223.236L249.124 232.699L253.907 217.388L241.384 207.925H256.864L261.648 192.613Z" fill="black"/>
   <path d="M148.295 257.387L153.27 272.109H169.37L156.345 281.208L161.32 295.931L148.295 286.832L135.271 295.931L140.246 281.208L127.221 272.109H143.32L148.295 257.387Z" fill="black"/>
   <path d="M81.8183 236.934L86.7933 251.656H102.893L89.868 260.755L94.8431 275.478L81.8183 266.379L68.7935 275.478L73.7685 260.755L60.7437 251.656H76.8432L81.8183 236.934Z" fill="black"/>
   <path d="M35.7953 192.613L40.7703 207.336H56.8699L43.8451 216.435L48.8201 231.158L35.7953 222.059L22.7705 231.158L27.7456 216.435L14.7208 207.336H30.8203L35.7953 192.613Z" fill="black"/>
   <path d="M35.7953 69.8867L40.7703 84.6094H56.8699L43.8451 93.7085L48.8201 108.431L35.7953 99.332L22.7705 108.431L27.7456 93.7085L14.7208 84.6094H30.8203L35.7953 69.8867Z" fill="black"/>
   <path d="M148.295 0L153.27 14.7226H169.37L156.345 23.8217L161.32 38.5444L148.295 29.4453L135.271 38.5444L140.246 23.8217L127.221 14.7226H143.32L148.295 0Z" fill="black"/>
   <path d="M79.2614 23.8633L84.0451 38.5859H99.5254L87.0016 47.685L91.7852 62.4077L79.2614 53.3086L66.7376 62.4077L71.5213 47.685L58.9974 38.5859H74.4777L79.2614 23.8633Z" fill="black"/>
   <path d="M260.796 68.1836L265.771 83.4951H281.87L268.845 92.9582L273.82 108.27L260.796 98.8067L247.771 108.27L252.746 92.9582L239.721 83.4951H255.821L260.796 68.1836Z" fill="black"/>
   <path d="M278.693 129.547L283.477 144.858H298.957L286.433 154.321L291.217 169.633L278.693 160.17L266.169 169.633L270.953 154.321L258.429 144.858H273.909L278.693 129.547Z" fill="black"/>
   <path d="M216.477 236.934L221.452 252.245H237.552L224.527 261.708L229.502 277.02L216.477 267.557L203.452 277.02L208.427 261.708L195.403 252.245H211.502L216.477 236.934Z" fill="black"/>
   <path d="M217.33 20.4531L222.113 35.7647H237.594L225.07 45.2277L229.853 60.5393L217.33 51.0762L204.806 60.5393L209.589 45.2277L197.066 35.7647H212.546L217.33 20.4531Z" fill="black"/>
   </svg>
   