<svg width="1075" height="438" viewBox="0 0 1075 438" fill="none" xmlns="http://www.w3.org/2000/svg">
<rect x="6.5" y="6.5" width="1061.06" height="425" rx="21.5" fill="white" stroke="url(#paint0_linear_209_10)" stroke-width="13"/>
<path d="M214.437 246.482C219.67 243.782 225.258 240.58 228.616 235.742C231.528 231.544 234.586 224.367 235.967 212.17C238.99 185.481 226.592 157.264 226.592 157.264L240.198 175.531H254.646L197.446 67.9973L201.527 58.154C201.527 58.154 198.162 64.2242 195.274 63.0756C191.968 61.7605 197.446 54.2257 197.446 54.2257L187.635 67.9973L193.364 48.6719L180.034 69.984C180.034 69.984 179.763 66.9651 180.034 65.0623C180.717 60.275 186.025 54.2257 186.025 54.2257L180.034 58.154L175.129 48.6719V67.9973L172.395 54.2257V69.984L167.79 52.6002C167.79 52.6002 168.441 57.234 166.404 58.154C163.922 59.275 161.799 52.9162 161.799 52.9162L163.147 69.984C163.147 69.984 160.943 69.0508 159.889 67.9973C156.722 64.831 159.889 56.5285 159.889 56.5285L155.246 63.0756L157.156 56.5285L152.25 63.0756L153.635 50.6134L147.082 67.9973L143.825 50.6134V65.0623L141.915 56.5285V67.9973L139.743 54.2257C139.743 54.2257 139.322 58.067 137.571 58.154C135.769 58.2435 135.137 54.2257 135.137 54.2257L133.49 69.984V58.154L131.056 65.0623L129.408 52.6002L127.236 67.9973L123.417 52.6002C123.417 52.6002 124.99 75.1667 122.892 73.1532C120.795 71.1397 119.62 70.0108 117.522 67.9973C117.522 67.9973 119.247 74.2995 117.522 77.6525C114.972 82.6121 113.741 63.8809 113.741 63.8809L111.435 80.0422L109.659 66.1837L107.653 85.4262L105.278 74.7176L104.657 90.98L101.197 77.6525C101.197 77.6525 105.905 100.135 100.576 95.5856C98.9001 94.1554 97.3181 90.98 97.3181 90.98L94.0605 100.868L92.1508 90.98C92.1508 90.98 92.8369 100.176 90.2412 98.5657C89.0666 97.8372 88.3315 95.5856 88.3315 95.5856V111.629L85.1123 105.404L78.2588 120.968L77.3059 113.568L74.1774 123.49L71.444 117.891V136.268L66.5389 130.353V144.125L61.1097 132.656V148.73L55.1187 144.125L54.2949 155.639L52.1227 144.125L50.475 157.264C50.475 157.264 54.6873 165.318 51.2989 167.353C37.5151 175.633 122.892 202.27 122.892 202.27C122.892 202.27 121.934 190.88 133.49 165.631C148.581 132.656 178.142 108.937 190.881 77.6525C191.559 75.9891 214.704 132.656 214.704 132.656L192.922 90.98C192.922 90.98 124.347 172.265 127.236 212.17C105.803 205.396 79.0229 194.408 67.2002 189.437C64.2438 188.193 60.9405 190.266 60.782 193.47L59.8566 212.17C59.8566 212.17 58.7852 216.711 61.1097 221.253C69.3108 237.276 115.661 246.308 115.661 246.308C126.258 249.166 127.236 212.17 127.236 212.17C129.017 236.766 133.434 249.622 137.571 250.493C179.839 259.389 203.545 252.103 214.437 246.482Z" fill="#1B7910"/>
<path d="M202.855 180.094C197.939 180.725 195.916 181.081 186.807 181.474L187.384 197.918C193.869 198.652 204.013 197.52 204.012 197.022C204.82 197.3 205.049 187.188 202.855 180.094Z" fill="white"/>
<path d="M203.906 203.113C197.509 204.088 193.889 204.404 187.279 203.952C186.377 210.361 186.312 213.947 186.994 220.38C194.683 222.186 204.206 220.024 203.63 219.03C203.63 219.03 204.597 209.343 203.906 203.113Z" fill="white"/>
<path d="M180.998 181.375C174.516 181.682 170.804 181.584 164.09 181.081C162.9 187.819 163.019 191.697 163.785 198.695C170.606 198.938 180.713 197.804 180.713 197.804C180.713 197.804 182.181 187.702 180.998 181.375Z" fill="white"/>
<path d="M180.608 203.836C171.152 204.562 167.675 204.435 163.7 203.542C162.648 210.615 162.507 214.531 163.39 221.413C170.648 221.989 174.311 221.68 180.323 220.265C181.529 213.874 181.538 210.263 180.608 203.836Z" fill="white"/>
<path d="M301.362 381.12C306.624 378.404 312.243 375.186 315.619 370.321C318.548 366.1 321.623 358.883 323.012 346.619C326.051 319.784 313.584 291.412 313.584 291.412L327.266 309.778H341.793L284.277 201.654L288.381 191.757C288.381 191.757 284.997 197.86 282.093 196.706C278.769 195.383 284.277 187.807 284.277 187.807L274.413 201.654L280.173 182.223L266.769 203.652C266.769 203.652 266.497 200.616 266.769 198.703C267.456 193.89 272.794 187.807 272.794 187.807L266.769 191.757L261.837 182.223V201.654L259.088 187.807V203.652L254.457 186.173C254.457 186.173 255.113 190.832 253.064 191.757C250.568 192.884 248.433 186.49 248.433 186.49L249.789 203.652C249.789 203.652 247.573 202.714 246.513 201.654C243.328 198.471 246.513 190.122 246.513 190.122L241.844 196.706L243.764 190.122L238.832 196.706L240.225 184.175L233.635 201.654L230.36 184.175V198.703L228.44 190.122V201.654L226.256 187.807C226.256 187.807 225.832 191.669 224.072 191.757C222.26 191.847 221.625 187.807 221.625 187.807L219.968 203.652V191.757L217.52 198.703L215.863 186.173L213.68 201.654L209.839 186.173C209.839 186.173 211.421 208.863 209.312 206.838C207.203 204.814 206.021 203.679 203.912 201.654C203.912 201.654 205.646 207.991 203.912 211.363C201.347 216.349 200.11 197.515 200.11 197.515L197.791 213.765L196.006 199.831L193.988 219.179L191.6 208.411L190.976 224.763L187.496 211.363C187.496 211.363 192.231 233.968 186.872 229.394C185.187 227.956 183.596 224.763 183.596 224.763L180.321 234.706L178.4 224.763C178.4 224.763 179.09 234.009 176.48 232.391C175.299 231.658 174.56 229.394 174.56 229.394V245.526L171.323 239.266L164.432 254.916L163.474 247.476L160.328 257.452L157.579 251.822V270.3L152.647 264.353V278.2L147.188 266.668V282.831L141.164 278.2L140.335 289.777L138.151 278.2L136.494 291.412C136.494 291.412 140.73 299.51 137.323 301.556C123.463 309.881 209.312 336.665 209.312 336.665C209.312 336.665 208.348 325.213 219.968 299.824C235.143 266.668 264.867 242.819 277.677 211.363C278.358 209.69 301.631 266.668 301.631 266.668L279.729 224.763C279.729 224.763 210.774 306.495 213.68 346.619C192.128 339.808 165.2 328.76 153.312 323.761C150.339 322.511 147.018 324.595 146.858 327.816L145.928 346.619C145.928 346.619 144.85 351.185 147.188 355.752C155.434 371.863 202.04 380.945 202.04 380.945C212.697 383.818 213.68 346.619 213.68 346.619C215.471 371.35 219.912 384.277 224.072 385.152C266.573 394.097 290.41 386.772 301.362 381.12Z" fill="#0E5006"/>
<path d="M289.716 314.367C284.773 315.001 282.739 315.36 273.579 315.755L274.16 332.289C280.681 333.027 290.88 331.889 290.88 331.388C291.692 331.668 291.922 321.5 289.716 314.367Z" fill="white"/>
<path d="M290.773 337.513C284.341 338.493 280.7 338.811 274.055 338.356C273.147 344.801 273.082 348.406 273.768 354.875C281.5 356.69 291.074 354.516 290.496 353.517C290.496 353.517 291.468 343.777 290.773 337.513Z" fill="white"/>
<path d="M267.738 315.655C261.221 315.963 257.489 315.865 250.737 315.36C249.541 322.134 249.66 326.034 250.43 333.07C257.289 333.314 267.452 332.174 267.452 332.174C267.452 332.174 268.928 322.016 267.738 315.655Z" fill="white"/>
<path d="M267.346 338.239C257.838 338.97 254.341 338.841 250.345 337.944C249.287 345.056 249.145 348.993 250.033 355.913C257.331 356.492 261.015 356.182 267.06 354.758C268.272 348.333 268.282 344.702 267.346 338.239Z" fill="white"/>
<path d="M619.514 229.856L619.498 229.828C609.425 212.006 604.373 192.876 604.373 172.519C604.373 152.323 609.531 133.447 619.815 115.979C630.076 98.3651 643.951 84.3881 661.389 74.1151C678.867 63.6328 697.847 58.3789 718.235 58.3789C738.788 58.3789 757.773 63.5297 775.085 73.8391M619.514 229.856L775.085 73.8391M619.514 229.856L619.53 229.884M619.514 229.856L619.53 229.884M775.085 73.8391C792.345 84.1177 806.036 98.1015 816.109 115.718M775.085 73.8391L816.109 115.718M619.53 229.884C629.786 247.492 643.646 261.643 661.058 272.283C678.544 282.969 697.543 288.33 717.956 288.33C738.51 288.33 757.494 283.179 774.806 272.869L774.813 272.865M619.53 229.884L774.813 272.865M774.813 272.865L774.821 272.861M774.813 272.865L774.821 272.861M774.821 272.861C792.255 262.4 806.041 248.326 816.118 230.696C826.399 212.848 831.54 193.424 831.54 172.519C831.54 152.153 826.39 133.189 816.109 115.718M774.821 272.861L816.109 115.718M375.754 63.9473H370.754V68.9473V277.761V282.761H375.754H450.649H455.649V277.761V269.687V264.687H450.649H389.942V203.69H439.79H444.79V198.69V190.616V185.616H439.79H389.942V82.0214H450.649H455.649V77.0214V68.9473V63.9473H450.649H375.754ZM595.988 281.209L597.466 282.761H599.609H611.859H623.59L615.466 274.299L498.858 152.832L592.556 72.7481L602.853 63.9473H589.307H576.222H574.353L572.942 65.1732L494.077 133.708V68.9473V63.9473H489.077H479.889H474.889V68.9473V277.761V282.761H479.889H489.077H494.077V277.761V174.164L595.988 281.209ZM799.378 221.808L799.373 221.816L799.368 221.824C790.879 236.681 779.416 248.495 764.933 257.331C750.497 265.954 734.87 270.255 717.956 270.255C701.044 270.255 685.417 265.954 670.982 257.332C656.498 248.496 644.938 236.679 636.261 221.815C627.793 206.808 623.561 190.591 623.561 173.076C623.561 155.752 627.791 139.725 636.255 124.905C644.931 110.038 656.487 98.3161 670.963 89.666L670.982 89.6546L671.001 89.643C685.429 80.8454 701.139 76.453 718.235 76.453C735.135 76.453 750.754 80.8402 765.19 89.643L765.209 89.6546L765.229 89.666C779.701 98.3142 791.158 110.029 799.647 124.884C808.118 139.71 812.352 155.744 812.352 173.076C812.352 190.583 808.031 206.797 799.378 221.808Z" fill="#1B7910" stroke="#1B7910" stroke-width="10"/>
<mask id="path-5-outside-1_209_10" maskUnits="userSpaceOnUse" x="405.891" y="223.016" width="612" height="168" fill="black">
<rect fill="white" x="405.891" y="223.016" width="612" height="168"/>
<path d="M478.131 237.701H419.891V232.016H486.955L428.538 373.373H499.115V379.058H419.891L478.131 237.701Z"/>
<path d="M547.439 381.215C539.908 381.215 532.908 379.124 526.437 374.941C519.966 370.759 514.848 365.138 511.083 358.08C507.317 350.891 505.435 343.18 505.435 334.945C505.435 326.711 507.317 319.065 511.083 312.007C514.848 304.818 519.966 299.132 526.437 294.95C532.908 290.767 539.908 288.676 547.439 288.676C555.086 288.676 562.322 290.963 569.146 295.538C575.97 299.982 580.735 305.798 583.442 312.987V290.833H589.089V379.058H583.442V357.1C580.265 364.419 575.323 370.301 568.617 374.745C562.028 379.058 554.969 381.215 547.439 381.215ZM547.791 375.725C554.263 375.725 560.263 373.895 565.793 370.236C571.323 366.445 575.676 361.479 578.853 355.335C582.147 349.062 583.794 342.265 583.794 334.945C583.794 327.757 582.147 321.025 578.853 314.752C575.559 308.478 571.146 303.511 565.616 299.851C560.087 296.061 554.086 294.166 547.615 294.166C541.144 294.166 535.085 296.061 529.437 299.851C523.907 303.642 519.436 308.674 516.024 314.948C512.73 321.222 511.083 327.953 511.083 335.142C511.083 342.33 512.73 349.062 516.024 355.335C519.436 361.479 523.966 366.445 529.613 370.236C535.261 373.895 541.32 375.725 547.791 375.725Z"/>
<path d="M619.307 232.408H624.954V321.418L656.369 290.833H663.604L627.248 326.123L672.782 379.058H665.193L624.954 332.005V379.058H619.307V232.408Z"/>
<path d="M725.675 381.215C718.145 381.215 711.144 379.124 704.673 374.941C698.202 370.759 693.084 365.138 689.319 358.08C685.554 350.891 683.671 343.18 683.671 334.945C683.671 326.711 685.554 319.065 689.319 312.007C693.084 304.818 698.202 299.132 704.673 294.95C711.144 290.767 718.145 288.676 725.675 288.676C733.323 288.676 740.559 290.963 747.383 295.538C754.207 299.982 758.972 305.798 761.678 312.987V290.833H767.325V379.058H761.678V357.1C758.501 364.419 753.56 370.301 746.853 374.745C740.264 379.058 733.205 381.215 725.675 381.215ZM726.028 375.725C732.499 375.725 738.499 373.895 744.029 370.236C749.559 366.445 753.913 361.479 757.089 355.335C760.384 349.062 762.031 342.265 762.031 334.945C762.031 327.757 760.384 321.025 757.089 314.752C753.795 308.478 749.383 303.511 743.853 299.851C738.323 296.061 732.323 294.166 725.851 294.166C719.38 294.166 713.321 296.061 707.673 299.851C702.144 303.642 697.673 308.674 694.261 314.948C690.966 321.222 689.319 327.953 689.319 335.142C689.319 342.33 690.966 349.062 694.261 355.335C697.673 361.479 702.202 366.445 707.85 370.236C713.497 373.895 719.557 375.725 726.028 375.725Z"/>
<path d="M825.957 380.235C817.251 380.235 810.015 377.294 804.249 371.412C798.602 365.53 795.778 357.427 795.778 347.101V255.346H801.426V290.833H825.781V296.322H801.426V347.101C801.426 355.728 803.72 362.524 808.309 367.491C813.015 372.327 818.898 374.745 825.957 374.745V380.235Z"/>
<path d="M887.395 375.921C893.513 375.921 899.337 374.157 904.867 370.628C910.397 367.099 914.985 362.263 918.633 356.12V366.119C914.279 371.477 909.514 375.399 904.337 377.882C899.16 380.235 893.278 381.411 886.689 381.411C879.394 381.411 872.511 379.254 866.04 374.941C859.687 370.628 854.568 364.877 850.686 357.688C846.921 350.499 845.038 342.853 845.038 334.749C845.038 325.992 846.921 318.15 850.686 311.223C854.451 304.165 859.569 298.675 866.04 294.754C872.629 290.833 879.924 288.872 887.924 288.872C900.161 288.872 910.573 294.231 919.162 304.949L863.746 365.726C867.628 369.255 871.393 371.87 875.041 373.569C878.688 375.137 882.806 375.921 887.395 375.921ZM850.686 334.161C850.686 345.01 853.921 354.29 860.392 362.001L912.103 304.949C908.22 301.158 904.455 298.479 900.808 296.91C897.16 295.211 892.807 294.362 887.748 294.362C880.571 294.362 874.158 296.126 868.511 299.655C862.981 303.054 858.628 307.759 855.451 313.771C852.274 319.784 850.686 326.58 850.686 334.161Z"/>
<path d="M944.757 232.408H950.404V321.418L981.819 290.833H989.054L952.698 326.123L998.232 379.058H990.643L950.404 332.005V379.058H944.757V232.408Z"/>
</mask>
<path d="M478.131 237.701H419.891V232.016H486.955L428.538 373.373H499.115V379.058H419.891L478.131 237.701Z" fill="#0E5006"/>
<path d="M547.439 381.215C539.908 381.215 532.908 379.124 526.437 374.941C519.966 370.759 514.848 365.138 511.083 358.08C507.317 350.891 505.435 343.18 505.435 334.945C505.435 326.711 507.317 319.065 511.083 312.007C514.848 304.818 519.966 299.132 526.437 294.95C532.908 290.767 539.908 288.676 547.439 288.676C555.086 288.676 562.322 290.963 569.146 295.538C575.97 299.982 580.735 305.798 583.442 312.987V290.833H589.089V379.058H583.442V357.1C580.265 364.419 575.323 370.301 568.617 374.745C562.028 379.058 554.969 381.215 547.439 381.215ZM547.791 375.725C554.263 375.725 560.263 373.895 565.793 370.236C571.323 366.445 575.676 361.479 578.853 355.335C582.147 349.062 583.794 342.265 583.794 334.945C583.794 327.757 582.147 321.025 578.853 314.752C575.559 308.478 571.146 303.511 565.616 299.851C560.087 296.061 554.086 294.166 547.615 294.166C541.144 294.166 535.085 296.061 529.437 299.851C523.907 303.642 519.436 308.674 516.024 314.948C512.73 321.222 511.083 327.953 511.083 335.142C511.083 342.33 512.73 349.062 516.024 355.335C519.436 361.479 523.966 366.445 529.613 370.236C535.261 373.895 541.32 375.725 547.791 375.725Z" fill="#0E5006"/>
<path d="M619.307 232.408H624.954V321.418L656.369 290.833H663.604L627.248 326.123L672.782 379.058H665.193L624.954 332.005V379.058H619.307V232.408Z" fill="#0E5006"/>
<path d="M725.675 381.215C718.145 381.215 711.144 379.124 704.673 374.941C698.202 370.759 693.084 365.138 689.319 358.08C685.554 350.891 683.671 343.18 683.671 334.945C683.671 326.711 685.554 319.065 689.319 312.007C693.084 304.818 698.202 299.132 704.673 294.95C711.144 290.767 718.145 288.676 725.675 288.676C733.323 288.676 740.559 290.963 747.383 295.538C754.207 299.982 758.972 305.798 761.678 312.987V290.833H767.325V379.058H761.678V357.1C758.501 364.419 753.56 370.301 746.853 374.745C740.264 379.058 733.205 381.215 725.675 381.215ZM726.028 375.725C732.499 375.725 738.499 373.895 744.029 370.236C749.559 366.445 753.913 361.479 757.089 355.335C760.384 349.062 762.031 342.265 762.031 334.945C762.031 327.757 760.384 321.025 757.089 314.752C753.795 308.478 749.383 303.511 743.853 299.851C738.323 296.061 732.323 294.166 725.851 294.166C719.38 294.166 713.321 296.061 707.673 299.851C702.144 303.642 697.673 308.674 694.261 314.948C690.966 321.222 689.319 327.953 689.319 335.142C689.319 342.33 690.966 349.062 694.261 355.335C697.673 361.479 702.202 366.445 707.85 370.236C713.497 373.895 719.557 375.725 726.028 375.725Z" fill="#0E5006"/>
<path d="M825.957 380.235C817.251 380.235 810.015 377.294 804.249 371.412C798.602 365.53 795.778 357.427 795.778 347.101V255.346H801.426V290.833H825.781V296.322H801.426V347.101C801.426 355.728 803.72 362.524 808.309 367.491C813.015 372.327 818.898 374.745 825.957 374.745V380.235Z" fill="#0E5006"/>
<path d="M887.395 375.921C893.513 375.921 899.337 374.157 904.867 370.628C910.397 367.099 914.985 362.263 918.633 356.12V366.119C914.279 371.477 909.514 375.399 904.337 377.882C899.16 380.235 893.278 381.411 886.689 381.411C879.394 381.411 872.511 379.254 866.04 374.941C859.687 370.628 854.568 364.877 850.686 357.688C846.921 350.499 845.038 342.853 845.038 334.749C845.038 325.992 846.921 318.15 850.686 311.223C854.451 304.165 859.569 298.675 866.04 294.754C872.629 290.833 879.924 288.872 887.924 288.872C900.161 288.872 910.573 294.231 919.162 304.949L863.746 365.726C867.628 369.255 871.393 371.87 875.041 373.569C878.688 375.137 882.806 375.921 887.395 375.921ZM850.686 334.161C850.686 345.01 853.921 354.29 860.392 362.001L912.103 304.949C908.22 301.158 904.455 298.479 900.808 296.91C897.16 295.211 892.807 294.362 887.748 294.362C880.571 294.362 874.158 296.126 868.511 299.655C862.981 303.054 858.628 307.759 855.451 313.771C852.274 319.784 850.686 326.58 850.686 334.161Z" fill="#0E5006"/>
<path d="M944.757 232.408H950.404V321.418L981.819 290.833H989.054L952.698 326.123L998.232 379.058H990.643L950.404 332.005V379.058H944.757V232.408Z" fill="#0E5006"/>
<path d="M478.131 237.701H419.891V232.016H486.955L428.538 373.373H499.115V379.058H419.891L478.131 237.701Z" stroke="#0E5006" stroke-width="18" mask="url(#path-5-outside-1_209_10)"/>
<path d="M547.439 381.215C539.908 381.215 532.908 379.124 526.437 374.941C519.966 370.759 514.848 365.138 511.083 358.08C507.317 350.891 505.435 343.18 505.435 334.945C505.435 326.711 507.317 319.065 511.083 312.007C514.848 304.818 519.966 299.132 526.437 294.95C532.908 290.767 539.908 288.676 547.439 288.676C555.086 288.676 562.322 290.963 569.146 295.538C575.97 299.982 580.735 305.798 583.442 312.987V290.833H589.089V379.058H583.442V357.1C580.265 364.419 575.323 370.301 568.617 374.745C562.028 379.058 554.969 381.215 547.439 381.215ZM547.791 375.725C554.263 375.725 560.263 373.895 565.793 370.236C571.323 366.445 575.676 361.479 578.853 355.335C582.147 349.062 583.794 342.265 583.794 334.945C583.794 327.757 582.147 321.025 578.853 314.752C575.559 308.478 571.146 303.511 565.616 299.851C560.087 296.061 554.086 294.166 547.615 294.166C541.144 294.166 535.085 296.061 529.437 299.851C523.907 303.642 519.436 308.674 516.024 314.948C512.73 321.222 511.083 327.953 511.083 335.142C511.083 342.33 512.73 349.062 516.024 355.335C519.436 361.479 523.966 366.445 529.613 370.236C535.261 373.895 541.32 375.725 547.791 375.725Z" stroke="#0E5006" stroke-width="18" mask="url(#path-5-outside-1_209_10)"/>
<path d="M619.307 232.408H624.954V321.418L656.369 290.833H663.604L627.248 326.123L672.782 379.058H665.193L624.954 332.005V379.058H619.307V232.408Z" stroke="#0E5006" stroke-width="18" mask="url(#path-5-outside-1_209_10)"/>
<path d="M725.675 381.215C718.145 381.215 711.144 379.124 704.673 374.941C698.202 370.759 693.084 365.138 689.319 358.08C685.554 350.891 683.671 343.18 683.671 334.945C683.671 326.711 685.554 319.065 689.319 312.007C693.084 304.818 698.202 299.132 704.673 294.95C711.144 290.767 718.145 288.676 725.675 288.676C733.323 288.676 740.559 290.963 747.383 295.538C754.207 299.982 758.972 305.798 761.678 312.987V290.833H767.325V379.058H761.678V357.1C758.501 364.419 753.56 370.301 746.853 374.745C740.264 379.058 733.205 381.215 725.675 381.215ZM726.028 375.725C732.499 375.725 738.499 373.895 744.029 370.236C749.559 366.445 753.913 361.479 757.089 355.335C760.384 349.062 762.031 342.265 762.031 334.945C762.031 327.757 760.384 321.025 757.089 314.752C753.795 308.478 749.383 303.511 743.853 299.851C738.323 296.061 732.323 294.166 725.851 294.166C719.38 294.166 713.321 296.061 707.673 299.851C702.144 303.642 697.673 308.674 694.261 314.948C690.966 321.222 689.319 327.953 689.319 335.142C689.319 342.33 690.966 349.062 694.261 355.335C697.673 361.479 702.202 366.445 707.85 370.236C713.497 373.895 719.557 375.725 726.028 375.725Z" stroke="#0E5006" stroke-width="18" mask="url(#path-5-outside-1_209_10)"/>
<path d="M825.957 380.235C817.251 380.235 810.015 377.294 804.249 371.412C798.602 365.53 795.778 357.427 795.778 347.101V255.346H801.426V290.833H825.781V296.322H801.426V347.101C801.426 355.728 803.72 362.524 808.309 367.491C813.015 372.327 818.898 374.745 825.957 374.745V380.235Z" stroke="#0E5006" stroke-width="18" mask="url(#path-5-outside-1_209_10)"/>
<path d="M887.395 375.921C893.513 375.921 899.337 374.157 904.867 370.628C910.397 367.099 914.985 362.263 918.633 356.12V366.119C914.279 371.477 909.514 375.399 904.337 377.882C899.16 380.235 893.278 381.411 886.689 381.411C879.394 381.411 872.511 379.254 866.04 374.941C859.687 370.628 854.568 364.877 850.686 357.688C846.921 350.499 845.038 342.853 845.038 334.749C845.038 325.992 846.921 318.15 850.686 311.223C854.451 304.165 859.569 298.675 866.04 294.754C872.629 290.833 879.924 288.872 887.924 288.872C900.161 288.872 910.573 294.231 919.162 304.949L863.746 365.726C867.628 369.255 871.393 371.87 875.041 373.569C878.688 375.137 882.806 375.921 887.395 375.921ZM850.686 334.161C850.686 345.01 853.921 354.29 860.392 362.001L912.103 304.949C908.22 301.158 904.455 298.479 900.808 296.91C897.16 295.211 892.807 294.362 887.748 294.362C880.571 294.362 874.158 296.126 868.511 299.655C862.981 303.054 858.628 307.759 855.451 313.771C852.274 319.784 850.686 326.58 850.686 334.161Z" stroke="#0E5006" stroke-width="18" mask="url(#path-5-outside-1_209_10)"/>
<path d="M944.757 232.408H950.404V321.418L981.819 290.833H989.054L952.698 326.123L998.232 379.058H990.643L950.404 332.005V379.058H944.757V232.408Z" stroke="#0E5006" stroke-width="18" mask="url(#path-5-outside-1_209_10)"/>
<defs>
<linearGradient id="paint0_linear_209_10" x1="537.031" y1="0" x2="537.031" y2="438" gradientUnits="userSpaceOnUse">
<stop stop-color="#1B7910"/>
<stop offset="1" stop-color="#0E5006"/>
</linearGradient>
</defs>
</svg>
