<svg width="982" height="453" viewBox="0 0 982 453" fill="none" xmlns="http://www.w3.org/2000/svg">
<path d="M78.6281 163.761C71.1618 163.761 64.1103 163.264 57.4735 162.268C51.0027 161.438 46.6888 160.194 44.5319 158.535C43.5364 157.539 42.8727 156.129 42.5409 154.304C42.375 152.313 42.292 150.737 42.292 149.575C42.292 145.593 42.6238 141.113 43.2875 136.136C44.1171 130.992 45.0297 126.015 46.0252 121.203C47.0207 116.392 47.8503 112.327 48.5139 109.008C49.3435 105.524 49.7583 103.367 49.7583 102.537C49.7583 101.21 49.0946 100.298 47.7673 99.7998C46.44 99.1362 45.7763 98.1407 45.7763 96.8133C45.7763 95.486 46.5229 94.8223 48.0162 94.8223C49.6754 94.6564 51.0027 94.4905 51.9982 94.3245C52.6619 92.1676 53.5744 88.4344 54.7359 83.125C55.8973 77.8157 57.1417 71.8426 58.469 65.2059C59.9623 58.5691 61.2896 52.0154 62.4511 45.5446C63.6125 38.9078 64.608 33.1007 65.4376 28.1231C66.2672 23.1456 66.682 19.8272 66.682 18.168C66.682 16.6748 65.8524 15.9281 64.1932 15.9281C62.6999 15.9281 61.1237 15.9281 59.4645 15.9281C57.8054 15.9281 56.9758 15.1815 56.9758 13.6883C56.9758 12.0291 57.8883 10.8676 59.7134 10.204C61.7044 9.5403 63.9443 9.1255 66.4331 8.95957C68.9219 8.62774 71.0788 8.46183 72.9039 8.46183C82.1953 8.46183 91.4038 8.87662 100.529 9.70621C109.655 10.5358 118.863 10.9506 128.155 10.9506H129.399C131.722 10.9506 133.298 10.6188 134.128 9.95509C135.123 9.29141 135.87 8.62774 136.368 7.96408C136.865 7.3004 137.529 6.96857 138.359 6.96857C139.354 6.96857 140.765 7.63224 142.59 8.95957C144.415 10.121 145.327 11.2824 145.327 12.4439C145.327 13.1075 145.161 13.5223 144.829 13.6883C144.498 13.8542 144.166 14.103 143.834 14.4349C139.852 17.0896 137.28 20.7398 136.119 25.3855C135.123 29.8653 134.045 34.1792 132.883 38.3271C132.717 38.8249 132.469 39.5715 132.137 40.567C131.971 41.5625 131.473 42.0603 130.643 42.0603C129.98 42.0603 129.482 41.5625 129.15 40.567C128.984 39.5715 128.901 38.7419 128.901 38.0782C128.901 36.4191 129.067 34.1792 129.399 31.3585C129.897 28.5379 130.395 25.7173 130.892 22.8967C131.39 19.9102 131.888 17.6703 132.386 16.177C132.22 16.3429 131.39 16.4259 129.897 16.4259C127.574 16.4259 124.09 16.26 119.444 15.9281C114.964 15.5963 110.318 15.2645 105.507 14.9326C100.861 14.6008 97.045 14.4349 94.0585 14.4349C92.7312 14.4349 90.4913 14.5178 87.3388 14.6838C84.1864 14.6838 82.0294 15.0986 80.868 15.9281C80.5362 16.0941 79.8725 18.0851 78.877 21.9012C78.0474 25.5514 76.9689 30.2801 75.6416 36.0872C74.3142 41.7284 72.9039 47.7845 71.4107 54.2553C70.0833 60.5602 68.756 66.6991 67.4286 72.6722C66.2672 78.4793 65.2717 83.4569 64.4421 87.6048C63.7784 91.5869 63.4466 93.9097 63.4466 94.5734C63.4466 95.2371 64.691 95.6519 67.1797 95.8178C69.6685 95.9837 72.1573 96.0667 74.6461 96.0667H99.7827C102.769 96.0667 106.171 96.1496 109.987 96.3156C113.803 96.3156 117.121 96.5644 119.942 97.0622C122.928 97.5599 124.422 98.3066 124.422 99.3021C124.422 99.9658 123.26 100.546 120.937 101.044C118.614 101.542 116.209 101.874 113.72 102.04C111.397 102.206 109.904 102.372 109.24 102.537C103.599 102.869 97.8746 103.201 92.0675 103.533C86.2603 103.699 80.4532 103.782 74.6461 103.782H60.7089C59.7134 106.271 58.7179 109.672 57.7224 113.986C56.7269 118.3 55.8973 122.862 55.2336 127.674C54.57 132.32 54.2381 136.717 54.2381 140.865C54.2381 145.344 54.7359 148.829 55.7314 151.317C56.3951 152.811 58.1372 153.972 60.9578 154.802C63.9443 155.465 67.4286 155.963 71.4107 156.295C75.5586 156.461 79.7066 156.544 83.8545 156.544C91.6527 156.544 98.3724 156.378 104.014 156.046C109.655 155.714 115.379 155.134 121.186 154.304C126.993 153.308 134.045 152.064 142.341 150.571C144 150.571 144.829 151.069 144.829 152.064C144.829 153.226 144 154.138 142.341 154.802C140.682 155.299 139.686 155.631 139.354 155.797C135.704 157.291 130.643 158.618 124.173 159.779C117.702 160.941 110.484 161.853 102.52 162.517C94.7222 163.347 86.7581 163.761 78.6281 163.761Z" fill="#307E23"/>
<path d="M170.441 164.757C168.947 164.757 168.201 164.176 168.201 163.015L171.436 153.557C172.266 151.235 172.846 148.912 173.178 146.589C173.51 144.266 174.008 141.943 174.671 139.62C175.833 134.809 176.994 130.08 178.156 125.434C179.317 120.788 180.562 116.143 181.889 111.497C181.557 110.667 180.727 109.008 179.4 106.52C178.073 104.031 177.409 102.372 177.409 101.542C177.409 97.8918 179.317 96.0667 183.133 96.0667C184.295 96.0667 185.207 96.3156 185.871 96.8133C188.028 88.8492 190.434 80.2215 193.088 70.9301C195.743 61.6386 198.978 52.5131 202.795 43.5535C206.611 34.594 211.422 26.5469 217.229 19.4124C223.037 12.2779 230.088 6.80264 238.384 2.98652C240.375 2.15693 242.449 1.49326 244.606 0.995497C246.763 0.331832 248.92 0 251.077 0C253.068 0 255.391 0.414795 258.045 1.24439C260.866 2.07398 263.272 3.31836 265.263 4.97754C267.254 6.47081 268.249 8.46183 268.249 10.9506C268.249 11.9461 268 12.6927 267.503 13.1905C267.337 13.3564 266.673 13.9371 265.512 14.9326C264.35 15.7622 263.189 16.5918 262.027 17.4214C260.866 18.251 260.119 18.7488 259.788 18.9147C259.456 18.5828 259.29 18.334 259.29 18.168C259.29 17.6703 259.539 17.1725 260.036 16.6748C260.534 16.177 260.783 15.5963 260.783 14.9326C260.783 13.2735 259.87 11.7802 258.045 10.4528C256.22 8.95958 254.146 7.79816 251.823 6.96857C249.501 5.97305 247.593 5.47529 246.099 5.47529C241.122 5.47529 236.476 7.46632 232.162 11.4484C227.848 15.2645 223.866 20.4079 220.216 26.8788C216.732 33.1837 213.496 40.1522 210.51 47.7845C207.523 55.4167 204.869 63.0489 202.546 70.6812C200.389 78.3134 198.481 85.3649 196.822 91.8358C195.162 98.1406 193.835 103.118 192.84 106.768C193.171 107.93 193.42 108.925 193.586 109.755C193.918 110.585 194.084 110.999 194.084 110.999C199.393 104.197 205.532 97.394 212.501 90.5914C219.635 83.7887 226.77 77.8986 233.904 72.9211C235.232 72.0915 236.891 71.6767 238.882 71.6767C240.043 71.6767 241.288 71.9256 242.615 72.4233C244.108 72.7552 244.855 73.6677 244.855 75.161C244.855 76.4883 243.859 78.0645 241.868 79.8896C239.877 81.7147 237.637 83.3739 235.149 84.8672C232.826 86.3605 231.167 87.4389 230.171 88.1026C224.53 91.9187 218.64 96.1496 212.501 100.795C206.362 105.441 200.887 110.087 196.075 114.732C197.734 117.719 199.974 121.369 202.795 125.683C205.615 129.831 208.602 133.979 211.754 138.127C215.073 142.109 218.308 145.51 221.46 148.331C224.779 150.986 227.765 152.313 230.42 152.313C232.909 152.313 234.817 151.317 236.144 149.326C237.637 147.335 238.716 145.096 239.38 142.607C240.209 139.952 240.79 137.712 241.122 135.887C241.288 135.555 241.454 134.809 241.619 133.647C241.951 132.32 242.449 131.656 243.113 131.656C243.942 131.656 244.44 131.988 244.606 132.652C244.938 133.315 245.104 133.979 245.104 134.643C245.104 134.975 245.021 135.306 244.855 135.638C244.855 135.97 244.855 136.302 244.855 136.634C244.523 139.786 244.108 143.353 243.61 147.335C243.279 151.317 241.868 154.553 239.38 157.042C236.559 159.862 233.324 161.273 229.673 161.273C226.023 161.273 222.207 160.028 218.225 157.539C214.409 154.885 210.676 151.566 207.026 147.584C203.541 143.436 200.389 139.122 197.568 134.643C194.748 129.997 192.425 125.766 190.6 121.95C189.77 123.941 188.774 126.43 187.613 129.416C186.618 132.403 185.705 135.389 184.875 138.376C184.046 141.196 183.465 143.353 183.133 144.847C183.797 146.008 184.129 147.418 184.129 149.078C184.129 152.064 183.631 154.636 182.636 156.793C181.64 158.784 179.898 160.526 177.409 162.019C176.414 162.683 175.335 163.264 174.174 163.761C173.012 164.425 171.768 164.757 170.441 164.757Z" fill="#307E23"/>
<path d="M285.14 162.517C279.001 162.517 274.853 160.775 272.696 157.291C270.539 153.64 269.461 148.995 269.461 143.353C269.461 137.38 270.373 131.656 272.198 126.181C274.023 120.706 276.014 115.23 278.171 109.755C277.01 108.925 275.931 107.847 274.936 106.52C274.106 105.192 273.692 103.284 273.692 100.795C273.692 97.9747 275.351 94.4075 278.669 90.0936C281.987 85.6138 285.721 81.7147 289.869 78.3964C291.694 76.9031 294.1 75.3269 297.086 73.6677C300.073 71.8426 303.142 70.3493 306.295 69.1879C309.447 67.8606 312.019 67.1969 314.01 67.1969C320.978 67.1969 325.624 70.0175 327.947 75.6587C330.27 81.3 331.099 88.0196 330.436 95.8178C331.099 95.486 332.261 94.9882 333.92 94.3245C335.745 93.6609 337.487 93.0801 339.146 92.5824C340.806 91.9187 341.801 91.5869 342.133 91.5869C342.962 91.5869 343.792 92.0017 344.622 92.8313C345.451 93.6609 345.866 94.4904 345.866 95.32C345.866 95.8178 345.617 96.2326 345.119 96.5644L329.44 102.537C328.445 107.681 326.785 113.654 324.463 120.457C322.306 127.259 319.319 133.896 315.503 140.367C311.853 146.672 307.456 151.981 302.312 156.295C297.335 160.443 291.611 162.517 285.14 162.517ZM297.086 104.031C301.234 104.031 305.216 103.616 309.032 102.786C312.848 101.791 316.996 100.546 321.476 99.0532C321.642 98.2236 321.725 97.3111 321.725 96.3156C321.891 95.32 321.974 94.4075 321.974 93.5779C321.974 91.5869 321.725 89.347 321.227 86.8582C320.895 84.3694 320.066 82.2125 318.738 80.3874C317.577 78.3964 315.752 77.4009 313.263 77.4009C310.443 77.4009 307.705 78.4793 305.05 80.6363C302.395 82.7932 299.907 85.3649 297.584 88.3515C295.427 91.338 293.519 94.2416 291.86 97.0622C290.366 99.8828 289.288 101.957 288.624 103.284C291.611 103.782 294.431 104.031 297.086 104.031ZM287.38 155.797C292.026 155.797 296.091 154.304 299.575 151.317C303.225 148.165 306.378 144.1 309.032 139.122C311.687 134.145 313.927 128.753 315.752 122.945C317.743 117.138 319.319 111.414 320.481 105.773C315.503 107.432 309.779 109.091 303.308 110.75C297.003 112.244 291.196 112.658 285.887 111.995C284.227 116.475 282.734 121.535 281.407 127.176C280.245 132.818 279.665 138.044 279.665 142.856C279.665 145.51 280.079 148.331 280.909 151.317C281.905 154.304 284.061 155.797 287.38 155.797Z" fill="#307E23"/>
<path d="M19.3262 403.994C16.7954 403.994 14.6097 403.764 12.7691 403.304C10.9285 402.844 9.66308 402.499 8.97286 402.269C7.59242 401.349 5.75183 399.853 3.4511 397.782C1.15037 395.482 0 393.181 0 390.88C0 389.04 0.34511 387.314 1.03533 385.704C3.10599 380.872 8.39768 373.855 16.9104 364.652C25.6532 355.219 36.1215 344.635 48.3154 332.902C60.7394 320.938 73.5084 308.744 86.6226 296.32C96.7458 286.657 106.639 277.224 116.302 268.021C125.965 258.588 134.708 249.845 142.53 241.793C150.583 233.74 157.14 226.723 162.202 220.741C167.493 214.759 170.714 210.388 171.865 207.627C172.325 206.476 170.944 205.326 167.723 204.176C164.733 202.795 159.096 201.76 150.813 201.07C145.751 200.379 138.159 200.034 128.036 200.034C118.143 200.034 106.869 200.61 94.215 201.76C81.7911 202.91 70.4024 205.096 60.0491 208.317C55.2176 209.697 50.6161 211.308 46.2447 213.149C42.1034 214.759 39.2275 216.485 37.617 218.325C36.2365 218.325 35.2012 217.865 34.511 216.945C34.0509 215.794 33.8208 214.644 33.8208 213.494C33.8208 211.653 34.7411 209.007 36.5817 205.556C38.4223 202.105 39.9177 199.919 41.0681 198.999C43.5989 197.158 49.1207 195.778 57.6334 194.858C66.3762 193.707 76.6144 192.902 88.3482 192.442C100.312 191.982 112.276 191.752 124.24 191.752C138.964 191.752 152.194 192.097 163.927 192.787C175.661 193.477 182.908 194.398 185.669 195.548C187.97 196.468 189.465 198.654 190.156 202.105C191.076 205.326 191.536 208.087 191.536 210.388C188.775 216.83 182.448 225.112 172.555 235.236C162.662 245.129 151.043 256.172 137.699 268.366C124.355 280.33 110.665 292.524 96.6308 304.948C83.9768 316.451 71.8979 327.84 60.3943 339.114C49.1207 350.157 39.8027 360.28 32.4403 369.483C25.3081 378.686 21.2818 386.164 20.3615 391.916C31.1749 391.455 41.8734 391.11 52.4567 390.88C63.0401 390.42 73.2784 390.19 83.1715 390.19C99.0466 390.19 113.541 390.535 126.655 391.225C140 391.916 150.928 392.836 159.441 393.986C160.361 393.986 161.972 394.216 164.272 394.676C166.803 395.137 169.104 395.827 171.175 396.747C173.475 397.667 174.626 398.818 174.626 400.198C174.626 401.349 173.82 402.039 172.21 402.269C170.599 402.729 169.449 402.959 168.759 402.959C161.166 402.499 150.813 402.154 137.699 401.924C124.585 401.464 110.895 401.234 96.6308 401.234C83.2865 401.234 70.1724 401.464 57.2883 401.924C44.4042 402.154 33.3606 402.729 24.1577 403.649C23.2374 403.649 22.3171 403.649 21.3968 403.649C20.7066 403.879 20.0164 403.994 19.3262 403.994Z" fill="black" fill-opacity="0.8"/>
<path d="M302.883 404.685C296.441 404.685 291.609 402.384 288.388 397.782C285.167 393.181 282.981 387.889 281.831 381.907C280.911 375.695 280.45 370.174 280.45 365.342C280.45 360.511 280.68 355.794 281.141 351.193C281.831 346.361 282.521 341.645 283.211 337.043C280.911 340.034 277.69 344.29 273.548 349.812C269.407 355.104 264.69 360.971 259.399 367.413C254.107 373.625 248.7 379.607 243.179 385.358C237.657 390.88 232.25 395.482 226.958 399.163C221.897 402.614 217.525 404.34 213.844 404.34C210.623 404.34 208.552 402.844 207.632 399.853C206.942 396.862 206.597 394.216 206.597 391.916C206.597 381.562 208.668 370.634 212.809 359.13C216.95 347.626 221.207 337.273 225.578 328.07C226.728 325.539 228.454 322.088 230.755 317.717C233.055 313.345 235.701 308.859 238.692 304.258C241.913 299.656 245.249 295.86 248.7 292.869C252.151 289.878 255.602 288.613 259.054 289.073C261.584 287.462 264 286.082 266.301 284.931C268.832 283.551 271.593 282.861 274.584 282.861C276.424 282.861 279.415 283.436 283.556 284.586C287.928 285.737 291.034 286.542 292.874 287.002C293.795 285.162 295.175 283.781 297.016 282.861C298.856 281.94 300.697 281.48 302.537 281.48C304.378 281.48 305.643 281.595 306.334 281.825C307.254 281.365 307.944 281.135 308.404 281.135C309.785 281.135 310.705 282.171 311.165 284.241C311.625 286.082 311.855 287.577 311.855 288.728C311.855 291.719 311.51 294.364 310.82 296.665C310.13 298.966 309.21 301.497 308.059 304.258C307.139 306.558 306.334 308.744 305.643 310.815C305.183 312.655 303.918 314.381 301.847 315.991C300.237 324.274 298.971 332.672 298.051 341.184C297.361 349.467 297.016 357.865 297.016 366.377C297.016 369.368 297.131 372.934 297.361 377.076C297.821 381.217 298.856 384.898 300.467 388.119C302.307 391.34 305.068 392.951 308.749 392.951C314.501 392.951 319.563 390.88 323.934 386.739C328.536 382.367 332.332 378.226 335.323 374.315C335.783 373.625 336.358 372.934 337.048 372.244C337.739 371.324 338.544 370.634 339.464 370.174L340.5 372.244C340.5 374.545 339.349 377.306 337.048 380.527C334.748 383.748 332.217 386.854 329.456 389.845C326.695 392.606 324.394 394.676 322.554 396.057C319.793 398.358 316.687 400.428 313.236 402.269C310.015 403.879 306.564 404.685 302.883 404.685ZM225.578 390.19C226.958 390.19 228.454 389.615 230.064 388.464C231.675 387.314 232.94 386.279 233.861 385.358C244.674 375.925 254.222 365.342 262.505 353.608C271.017 341.875 278.38 329.681 284.592 317.027C285.282 315.876 285.972 314.611 286.662 313.23C287.353 311.85 287.813 310.47 288.043 309.089C288.503 307.249 288.963 305.293 289.423 303.222C289.883 300.922 290.229 298.851 290.459 297.01C290.229 295.86 288.963 294.825 286.662 293.904C284.362 292.984 281.831 292.294 279.07 291.834C276.539 291.143 274.699 290.798 273.548 290.798C269.177 290.798 265.266 292.639 261.814 296.32C258.593 299.771 255.833 303.107 253.532 306.328C250.771 310.47 247.55 315.876 243.869 322.548C240.418 329.221 236.967 336.353 233.515 343.945C230.294 351.308 227.534 358.44 225.233 365.342C223.162 372.244 222.127 378.111 222.127 382.943C222.127 384.093 222.242 385.589 222.472 387.429C222.932 389.27 223.967 390.19 225.578 390.19Z" fill="black" fill-opacity="0.8"/>
<path d="M351.985 408.826C349.915 408.826 348.879 408.021 348.879 406.41L353.366 393.296C354.516 390.075 355.321 386.854 355.781 383.633C356.242 380.412 356.932 377.191 357.852 373.97C359.463 367.298 361.073 360.741 362.684 354.299C364.294 347.857 366.02 341.414 367.86 334.972C367.4 333.822 366.25 331.521 364.409 328.07C362.569 324.619 361.648 322.318 361.648 321.168C361.648 316.106 364.294 313.576 369.586 313.576C371.196 313.576 372.462 313.921 373.382 314.611C376.373 303.567 379.709 291.604 383.39 278.719C387.071 265.835 391.558 253.181 396.85 240.757C402.141 228.333 408.813 217.175 416.866 207.282C424.919 197.389 434.697 189.796 446.2 184.504C448.961 183.354 451.837 182.434 454.828 181.744C457.819 180.823 460.81 180.363 463.801 180.363C466.562 180.363 469.783 180.938 473.464 182.089C477.375 183.239 480.711 184.965 483.472 187.265C486.233 189.336 487.613 192.097 487.613 195.548C487.613 196.928 487.268 197.964 486.578 198.654C486.348 198.884 485.428 199.689 483.817 201.07C482.207 202.22 480.596 203.37 478.986 204.521C477.375 205.671 476.34 206.361 475.88 206.591C475.42 206.131 475.19 205.786 475.19 205.556C475.19 204.866 475.535 204.176 476.225 203.485C476.915 202.795 477.26 201.99 477.26 201.07C477.26 198.769 475.995 196.698 473.464 194.858C470.933 192.787 468.057 191.177 464.836 190.026C461.615 188.646 458.969 187.956 456.899 187.956C449.996 187.956 443.554 190.716 437.573 196.238C431.591 201.53 426.069 208.662 421.007 217.635C416.176 226.378 411.689 236.041 407.548 246.624C403.407 257.208 399.725 267.791 396.504 278.374C393.513 288.958 390.868 298.736 388.567 307.709C386.266 316.451 384.426 323.354 383.045 328.415C383.505 330.026 383.85 331.406 384.08 332.557C384.541 333.707 384.771 334.282 384.771 334.282C392.133 324.849 400.646 315.416 410.309 305.983C420.202 296.55 430.095 288.383 439.988 281.48C441.829 280.33 444.13 279.755 446.89 279.755C448.501 279.755 450.227 280.1 452.067 280.79C454.138 281.25 455.173 282.516 455.173 284.586C455.173 286.427 453.793 288.613 451.032 291.143C448.271 293.674 445.165 295.975 441.714 298.046C438.493 300.116 436.192 301.612 434.812 302.532C426.989 307.824 418.822 313.691 410.309 320.133C401.796 326.575 394.204 333.017 387.532 339.459C389.832 343.6 392.938 348.662 396.85 354.644C400.761 360.396 404.902 366.147 409.273 371.899C413.875 377.421 418.361 382.137 422.733 386.049C427.334 389.73 431.476 391.57 435.157 391.57C438.608 391.57 441.254 390.19 443.094 387.429C445.165 384.668 446.66 381.562 447.581 378.111C448.731 374.43 449.536 371.324 449.996 368.793C450.227 368.333 450.457 367.298 450.687 365.687C451.147 363.847 451.837 362.926 452.757 362.926C453.908 362.926 454.598 363.386 454.828 364.307C455.288 365.227 455.518 366.147 455.518 367.068C455.518 367.528 455.403 367.988 455.173 368.448C455.173 368.908 455.173 369.368 455.173 369.828C454.713 374.2 454.138 379.146 453.448 384.668C452.987 390.19 451.032 394.676 447.581 398.128C443.669 402.039 439.183 403.994 434.121 403.994C429.06 403.994 423.768 402.269 418.246 398.818C412.955 395.137 407.778 390.535 402.716 385.013C397.885 379.262 393.513 373.28 389.602 367.068C385.691 360.626 382.47 354.759 379.939 349.467C378.789 352.228 377.408 355.679 375.798 359.82C374.417 363.962 373.152 368.103 372.002 372.244C370.851 376.156 370.046 379.146 369.586 381.217C370.506 382.828 370.966 384.783 370.966 387.084C370.966 391.225 370.276 394.791 368.896 397.782C367.515 400.543 365.099 402.959 361.648 405.03C360.268 405.95 358.772 406.755 357.162 407.445C355.551 408.366 353.826 408.826 351.985 408.826Z" fill="black" fill-opacity="0.8"/>
<path d="M581 405C575.788 405.315 568.438 402.384 565.217 397.782C561.996 393.181 559.811 387.889 558.66 381.907C557.74 375.695 557.28 370.174 557.28 365.342C557.28 360.511 557.51 355.794 557.97 351.193C558.66 346.361 559.35 341.645 560.041 337.043C557.74 340.034 554.519 344.29 550.378 349.812C546.236 355.104 541.52 360.971 536.228 367.413C530.936 373.625 525.53 379.607 520.008 385.358C514.486 390.88 509.079 395.482 503.788 399.163C498.726 402.614 494.355 404.34 490.674 404.34C487.453 404.34 485.382 402.844 484.462 399.853C483.771 396.862 483.426 394.216 483.426 391.916C483.426 381.562 485.497 370.634 489.638 359.13C493.78 347.626 498.036 337.273 502.407 328.07C503.558 325.539 505.283 322.088 507.584 317.717C509.885 313.345 512.531 308.859 515.522 304.258C518.743 299.656 522.079 295.86 525.53 292.869C528.981 289.878 532.432 288.613 535.883 289.073C538.414 287.462 540.83 286.082 543.13 284.931C545.661 283.551 548.422 282.861 551.413 282.861C553.254 282.861 556.245 283.436 560.386 284.586C564.757 285.737 567.863 286.542 569.704 287.002C570.624 285.162 572.005 283.781 573.845 282.861C575.686 281.94 577.526 281.48 579.367 281.48C581.207 281.48 582.473 281.595 583.163 281.825C584.083 281.365 584.774 281.135 585.234 281.135C586.614 281.135 587.535 282.171 587.995 284.241C588.455 286.082 588.685 287.577 588.685 288.728C588.685 291.719 588.34 294.364 587.65 296.665C586.959 298.966 586.039 301.497 584.889 304.258C583.968 306.558 583.163 308.744 582.473 310.815C582.013 312.655 580.747 314.381 578.677 315.991C577.066 324.274 575.801 332.672 574.88 341.184C574.19 349.467 573.845 357.865 573.845 366.377C573.845 369.368 573.96 372.934 574.19 377.076C574.65 381.217 575.686 384.898 577.296 388.119C579.137 391.34 581.898 392.951 585.579 392.951C591.331 392.951 596.392 390.88 600.764 386.739C605.365 382.367 609.161 378.226 612.152 374.315C612.613 373.625 613.188 372.934 613.878 372.244C614.568 371.324 615.373 370.634 616.294 370.174L617.329 372.244C617.329 374.545 616.179 377.306 613.878 380.527C611.577 383.748 609.046 386.854 606.285 389.845C603.525 392.606 601.224 394.676 599.383 396.057C596.622 398.358 593.516 400.428 590.065 402.269C586.844 403.879 585.288 404.741 581 405ZM502.407 390.19C503.788 390.19 505.283 389.615 506.894 388.464C508.504 387.314 509.77 386.279 510.69 385.358C521.503 375.925 531.052 365.342 539.334 353.608C547.847 341.875 555.209 329.681 561.421 317.027C562.111 315.876 562.802 314.611 563.492 313.23C564.182 311.85 564.642 310.47 564.872 309.089C565.332 307.249 565.793 305.293 566.253 303.222C566.713 300.922 567.058 298.851 567.288 297.01C567.058 295.86 565.793 294.825 563.492 293.904C561.191 292.984 558.66 292.294 555.899 291.834C553.369 291.143 551.528 290.798 550.378 290.798C546.006 290.798 542.095 292.639 538.644 296.32C535.423 299.771 532.662 303.107 530.361 306.328C527.6 310.47 524.379 315.876 520.698 322.548C517.247 329.221 513.796 336.353 510.345 343.945C507.124 351.308 504.363 358.44 502.062 365.342C499.992 372.244 498.956 378.111 498.956 382.943C498.956 384.093 499.071 385.589 499.301 387.429C499.762 389.27 500.797 390.19 502.407 390.19ZM577.641 453C573.5 453 569.014 452.08 564.182 450.239C559.581 448.399 557.28 444.947 557.28 439.886C557.28 437.355 558.085 433.904 559.696 429.533C561.306 425.161 563.377 420.56 565.908 415.728C568.438 411.127 570.739 407.278 573.5 403.827C576.606 404.71 578.358 404.861 581 405L582.806 404.836C582 407 580.172 407.445 576.951 413.657C573.73 419.869 572.12 425.276 572.12 429.878C572.12 433.789 573.385 436.665 575.916 438.505C578.677 440.576 581.668 441.611 584.889 441.611C589.03 441.611 593.401 441.151 598.003 440.231C602.604 439.311 606.746 437.7 610.427 435.399C610.657 435.169 610.772 435.054 610.772 435.054C611.002 435.054 611.117 435.054 611.117 435.054C611.807 435.054 612.382 435.399 612.843 436.09C613.303 437.01 613.533 437.815 613.533 438.505C613.533 440.576 611.462 442.762 607.321 445.062C603.179 447.363 598.233 449.204 592.481 450.584C586.959 452.195 582.013 453 577.641 453Z" fill="black" fill-opacity="0.8"/>
<path d="M644.345 401.924C642.504 401.924 640.663 401.349 638.823 400.198C637.212 399.048 636.407 397.322 636.407 395.022C636.407 393.181 636.752 391.225 637.442 389.155C638.133 386.854 638.593 384.898 638.823 383.288C642.734 368.103 646.875 353.033 651.247 338.078C655.848 322.894 660.335 307.824 664.706 292.869H655.043C654.353 292.869 653.663 292.984 652.972 293.214C652.282 293.214 651.592 293.214 650.902 293.214H649.521C649.291 293.214 649.176 293.329 649.176 293.559C647.796 292.869 647.105 291.834 647.105 290.453C647.105 289.303 647.336 288.383 647.796 287.692C648.486 287.002 649.176 286.427 649.866 285.967C651.017 284.816 652.397 284.126 654.008 283.896C655.848 283.666 657.574 283.551 659.184 283.551C660.565 283.551 661.945 283.666 663.326 283.896C664.936 283.896 666.432 283.896 667.812 283.896C668.502 281.825 669.423 278.95 670.573 275.268C671.723 271.357 672.759 267.446 673.679 263.535C674.599 259.623 675.059 256.747 675.059 254.907C675.059 253.757 674.254 253.296 672.644 253.526C671.263 253.757 670.458 253.526 670.228 252.836C671.838 248.695 673.219 244.554 674.369 240.412C675.75 236.041 677.015 231.669 678.165 227.298C678.626 225.227 680.351 223.502 683.342 222.121C686.333 220.511 688.864 219.706 690.935 219.706C693.005 219.706 694.386 220.396 695.076 221.776C695.766 222.927 696.111 224.422 696.111 226.263C696.111 228.794 695.421 232.705 694.04 237.996C692.66 243.288 691.05 249.04 689.209 255.252C687.368 261.234 685.528 266.871 683.687 272.162C682.077 277.454 680.811 281.365 679.891 283.896H718.543C718.773 283.896 719.233 284.241 719.924 284.931C719.924 285.852 718.313 286.657 715.092 287.347C712.101 287.807 710.376 288.037 709.916 288.037C704.624 288.958 699.217 289.763 693.695 290.453C688.174 290.913 682.652 291.374 677.13 291.834C675.75 296.205 673.679 302.417 670.918 310.47C668.387 318.522 665.626 327.15 662.635 336.353C659.875 345.556 657.459 354.184 655.388 362.236C653.317 370.059 652.282 375.925 652.282 379.837C652.282 381.907 652.627 384.093 653.318 386.394C654.238 388.464 655.963 389.5 658.494 389.5C661.945 389.5 665.511 388.234 669.193 385.704C673.104 383.173 676.785 380.297 680.236 377.076C683.917 373.855 687.023 370.979 689.554 368.448C692.085 365.917 693.81 364.652 694.731 364.652C695.881 364.652 696.456 365.457 696.456 367.068C696.456 367.528 696.341 368.563 696.111 370.174C696.111 371.784 695.536 372.589 694.386 372.589C692.085 374.89 688.749 377.766 684.377 381.217C680.236 384.438 675.635 387.659 670.573 390.88C665.741 393.871 660.91 396.517 656.078 398.818C651.477 400.888 647.566 401.924 644.345 401.924Z" fill="black" fill-opacity="0.8"/>
<path d="M797.865 326C796.714 326 796.139 325.424 796.139 324.274C796.139 323.584 796.254 323.009 796.484 322.548C797.865 318.867 798.9 315.416 799.59 312.195C800.511 308.744 800.971 305.178 800.971 301.497C800.971 300.116 800.856 298.276 800.625 295.975C800.625 293.444 800.165 291.143 799.245 289.073C798.555 287.002 797.174 285.967 795.104 285.967C794.184 285.967 793.378 286.082 792.688 286.312C791.998 286.312 791.193 286.312 790.272 286.312C787.971 286.312 786.821 285.392 786.821 283.551C786.821 282.631 787.856 281.825 789.927 281.135C792.228 280.445 794.644 279.87 797.174 279.41C799.705 278.95 801.431 278.719 802.351 278.719C808.103 278.719 811.669 280.905 813.049 285.277C814.66 289.418 815.465 293.789 815.465 298.391C815.465 302.762 814.66 307.364 813.049 312.195C811.669 317.027 809.023 320.708 805.112 323.239C804.192 323.929 803.041 324.619 801.661 325.309C800.28 325.769 799.015 326 797.865 326ZM746.443 404.685C739.771 404.685 735.055 403.074 732.294 399.853C729.763 396.632 728.498 391.916 728.498 385.704C728.498 378.801 729.303 371.899 730.913 364.997C732.524 358.095 734.479 351.423 736.78 344.981L733.674 346.016C732.524 345.326 731.949 344.175 731.949 342.565C731.949 340.494 732.869 338.539 734.71 336.698C736.78 334.627 738.851 333.477 740.922 333.247C742.302 329.796 744.258 325.309 746.788 319.788C749.319 314.266 752.195 308.744 755.416 303.222C758.867 297.7 762.663 293.099 766.805 289.418C770.946 285.737 775.432 283.896 780.264 283.896C782.335 283.896 783.37 284.816 783.37 286.657C783.37 287.347 782.91 288.267 781.99 289.418C781.069 290.338 780.379 291.028 779.919 291.489C776.928 294.249 774.052 298.161 771.291 303.222C768.53 308.054 766 313.115 763.699 318.407C761.398 323.469 759.442 327.955 757.832 331.866C764.274 330.946 770.601 330.256 776.813 329.796C783.255 329.336 789.697 329.106 796.139 329.106C796.829 329.106 798.555 329.221 801.316 329.451C804.077 329.451 807.183 329.681 810.634 330.141C814.085 330.371 816.961 330.831 819.261 331.521C821.792 332.211 823.058 333.132 823.058 334.282C823.058 335.202 822.483 335.778 821.332 336.008C820.412 336.238 819.722 336.353 819.261 336.353C816.271 336.353 813.395 336.123 810.634 335.663C807.873 335.202 804.997 334.972 802.006 334.972C794.183 334.972 786.246 335.548 778.193 336.698C770.141 337.848 762.203 339.229 754.381 340.839C752.08 346.821 749.779 353.608 747.479 361.201C745.408 368.793 744.373 375.925 744.373 382.598C744.373 386.279 745.063 389.845 746.443 393.296C747.824 396.517 750.7 398.128 755.071 398.128C761.283 398.128 767.15 395.712 772.672 390.88C778.423 385.819 783.715 380.182 788.547 373.97C793.378 367.528 797.404 362.236 800.625 358.095H800.971C801.891 358.095 802.351 358.555 802.351 359.475C802.581 360.396 802.696 361.086 802.696 361.546C802.696 365.457 801.776 369.138 799.935 372.589C798.095 375.81 795.794 378.801 793.033 381.562C786.821 387.314 779.689 392.606 771.636 397.437C763.814 402.269 755.416 404.685 746.443 404.685Z" fill="black" fill-opacity="0.8"/>
<path d="M846.328 408.826C844.258 408.826 843.222 408.021 843.222 406.41L847.709 393.296C848.859 390.075 849.664 386.854 850.125 383.633C850.585 380.412 851.275 377.191 852.195 373.97C853.806 367.298 855.416 360.741 857.027 354.299C858.637 347.857 860.363 341.414 862.203 334.972C861.743 333.822 860.593 331.521 858.752 328.07C856.912 324.619 855.991 322.318 855.991 321.168C855.991 316.106 858.637 313.576 863.929 313.576C865.539 313.576 866.805 313.921 867.725 314.611C870.716 303.567 874.052 291.604 877.733 278.719C881.415 265.835 885.901 253.181 891.193 240.757C896.484 228.333 903.156 217.175 911.209 207.282C919.262 197.389 929.04 189.796 940.543 184.504C943.304 183.354 946.18 182.434 949.171 181.744C952.162 180.823 955.153 180.363 958.144 180.363C960.905 180.363 964.126 180.938 967.807 182.089C971.718 183.239 975.054 184.965 977.815 187.265C980.576 189.336 981.957 192.097 981.957 195.548C981.957 196.928 981.611 197.964 980.921 198.654C980.691 198.884 979.771 199.689 978.16 201.07C976.55 202.22 974.939 203.37 973.329 204.521C971.718 205.671 970.683 206.361 970.223 206.591C969.763 206.131 969.533 205.786 969.533 205.556C969.533 204.866 969.878 204.176 970.568 203.485C971.258 202.795 971.603 201.99 971.603 201.07C971.603 198.769 970.338 196.698 967.807 194.858C965.276 192.787 962.4 191.177 959.179 190.026C955.958 188.646 953.312 187.956 951.242 187.956C944.34 187.956 937.898 190.716 931.916 196.238C925.934 201.53 920.412 208.662 915.35 217.635C910.519 226.378 906.032 236.041 901.891 246.624C897.75 257.208 894.069 267.791 890.848 278.374C887.857 288.958 885.211 298.736 882.91 307.709C880.609 316.451 878.769 323.354 877.388 328.415C877.848 330.026 878.194 331.406 878.424 332.557C878.884 333.707 879.114 334.282 879.114 334.282C886.476 324.849 894.989 315.416 904.652 305.983C914.545 296.55 924.438 288.383 934.331 281.48C936.172 280.33 938.473 279.755 941.234 279.755C942.844 279.755 944.57 280.1 946.41 280.79C948.481 281.25 949.516 282.516 949.516 284.586C949.516 286.427 948.136 288.613 945.375 291.143C942.614 293.674 939.508 295.975 936.057 298.046C932.836 300.116 930.535 301.612 929.155 302.532C921.332 307.824 913.165 313.691 904.652 320.133C896.139 326.575 888.547 333.017 881.875 339.459C884.175 343.6 887.281 348.662 891.193 354.644C895.104 360.396 899.245 366.147 903.617 371.899C908.218 377.421 912.704 382.137 917.076 386.049C921.677 389.73 925.819 391.57 929.5 391.57C932.951 391.57 935.597 390.19 937.437 387.429C939.508 384.668 941.003 381.562 941.924 378.111C943.074 374.43 943.879 371.324 944.34 368.793C944.57 368.333 944.8 367.298 945.03 365.687C945.49 363.847 946.18 362.926 947.1 362.926C948.251 362.926 948.941 363.386 949.171 364.307C949.631 365.227 949.861 366.147 949.861 367.068C949.861 367.528 949.746 367.988 949.516 368.448C949.516 368.908 949.516 369.368 949.516 369.828C949.056 374.2 948.481 379.146 947.791 384.668C947.331 390.19 945.375 394.676 941.924 398.128C938.013 402.039 933.526 403.994 928.464 403.994C923.403 403.994 918.111 402.269 912.589 398.818C907.298 395.137 902.121 390.535 897.06 385.013C892.228 379.262 887.857 373.28 883.945 367.068C880.034 360.626 876.813 354.759 874.282 349.467C873.132 352.228 871.751 355.679 870.141 359.82C868.76 363.962 867.495 368.103 866.345 372.244C865.194 376.156 864.389 379.146 863.929 381.217C864.849 382.828 865.309 384.783 865.309 387.084C865.309 391.225 864.619 394.791 863.239 397.782C861.858 400.543 859.442 402.959 855.991 405.03C854.611 405.95 853.116 406.755 851.505 407.445C849.894 408.366 848.169 408.826 846.328 408.826Z" fill="black" fill-opacity="0.8"/>
</svg>
