<svg width="93" height="123" viewBox="0 0 93 123" fill="none" xmlns="http://www.w3.org/2000/svg">
<path d="M30.9646 41.0875C35.7695 41.0875 39.6646 37.1924 39.6646 32.3875C39.6646 27.5826 35.7695 23.6875 30.9646 23.6875C26.1598 23.6875 22.2646 27.5826 22.2646 32.3875C22.2646 37.1924 26.1598 41.0875 30.9646 41.0875Z" fill="#0F1013"/>
<path fill-rule="evenodd" clip-rule="evenodd" d="M25.0647 21.1906C26.1647 20.6906 27.4647 20.0906 28.9647 19.8906C28.9647 13.5906 28.9647 7.39063 28.9647 1.09063C29.1647 0.790625 29.5647 0.190625 29.9647 0.090625C30.2647 -0.009375 30.7647 0.090625 31.0647 0.090625C31.4647 0.090625 31.7647 0.0906254 32.0647 0.190625C32.4647 0.390625 32.8647 0.790625 32.8647 1.09063C32.9647 1.39063 32.8647 1.89062 32.8647 2.29062C32.8647 7.99062 32.8647 14.0906 32.8647 19.7906C34.3647 20.0906 35.6647 20.4906 36.7647 21.0906C36.7647 14.9906 36.7647 8.59063 36.7647 2.39063C36.7647 1.99063 36.6647 1.49063 36.7647 1.19063C36.8647 0.790625 37.3647 0.190625 37.8647 0.090625C38.2647 -0.009375 39.1647 -0.009375 39.6647 0.090625C40.2647 0.190625 40.4647 0.690625 40.7647 1.09063C40.7647 7.89063 40.7647 14.5906 40.7647 21.4906C40.7647 22.4906 40.6647 23.4906 40.7647 24.3906C40.7647 24.4906 40.8647 24.5906 40.8647 24.6906C41.0647 24.9906 41.2647 25.1906 41.4647 25.3906C42.0647 26.0906 42.4647 27.0906 42.7647 27.9906C43.2647 29.2906 43.5647 30.7906 43.5647 32.4906C43.5647 35.7906 42.3647 38.1906 40.7647 40.1906C40.6647 67.2906 40.7647 94.4906 40.7647 121.691C40.4647 122.091 40.1647 122.691 39.4647 122.691C39.0647 122.691 38.3647 122.691 37.9647 122.691C37.3647 122.591 37.0647 122.091 36.7647 121.691C36.7647 95.6906 36.7647 69.6906 36.7647 43.6906C35.6647 44.1906 34.3647 44.7906 32.8647 44.9906C32.8647 70.5906 32.8647 96.1906 32.8647 121.791C32.6647 122.191 32.2647 122.791 31.6647 122.791C31.1647 122.791 30.4647 122.891 29.9647 122.791C29.6647 122.691 28.9647 122.091 28.9647 121.791C28.8647 121.491 28.9647 120.991 28.9647 120.591C28.9647 95.4906 28.9647 69.9906 28.9647 44.9906C27.4647 44.6906 26.1647 44.2906 25.0647 43.6906C25.0647 69.6906 25.0647 95.8906 25.0647 121.891C24.8647 122.291 24.5647 122.791 23.8647 122.891C23.2647 122.991 22.6647 122.991 22.1647 122.891C21.5647 122.791 21.3647 122.191 21.0647 121.891C21.0647 94.6906 21.0647 67.4906 21.0647 40.3906C21.0647 40.0906 20.6647 39.7906 20.5647 39.4906C19.2647 37.6906 18.4647 35.3906 18.3647 32.4906C18.2647 29.5906 19.3647 27.1906 20.5647 25.4906C20.7647 25.2906 21.0647 24.9906 21.0647 24.6906C21.1647 24.2906 21.0647 23.6906 21.0647 23.1906C21.0647 15.8906 21.0647 8.49062 21.0647 1.29062C21.3647 0.890625 21.5647 0.490625 21.9647 0.390625C22.2647 0.290625 23.4647 0.290625 23.9647 0.290625C24.3647 0.390625 24.9647 0.990625 25.0647 1.29062C25.1647 1.59062 25.0647 2.09063 25.0647 2.59063C25.0647 8.39063 25.0647 15.2906 25.0647 21.1906ZM24.5647 29.4906C23.9647 30.7906 23.8647 32.5906 24.1647 33.9906C24.4647 35.3906 25.2647 36.4906 26.0647 37.2906C26.9647 38.1906 28.0647 38.8906 29.3647 39.1906C30.8647 39.4906 32.5647 39.2906 33.8647 38.6906C35.9647 37.6906 37.9647 35.3906 37.9647 32.2906C37.9647 29.9906 36.9647 28.5906 35.8647 27.3906C34.7647 26.2906 33.0647 25.2906 30.9647 25.2906C27.7647 25.3906 25.5647 27.3906 24.5647 29.4906Z" fill="#F7F8FA"/>
<path fill-rule="evenodd" clip-rule="evenodd" d="M45.7647 0.0888889C46.2647 0.0888889 47.2647 -0.111111 47.7647 0.0888889C48.1647 0.188889 48.6647 0.688889 48.7647 1.08889C48.8647 1.58889 48.7647 2.38889 48.7647 2.98889C48.7647 41.9889 48.7647 80.6889 48.7647 119.689C48.7647 120.389 48.8647 120.989 48.7647 121.589C48.6647 121.989 48.3647 122.289 48.0647 122.489C47.6647 122.789 47.1647 122.689 46.6647 122.689C45.9647 122.689 45.7647 122.689 45.3647 122.389C45.0647 122.189 44.7647 121.889 44.7647 121.389C44.6647 120.189 44.7647 118.889 44.7647 117.589C44.7647 79.4889 44.7647 41.1889 44.7647 2.98889C44.7647 2.38889 44.6647 1.68889 44.7647 1.08889C44.8647 0.688889 45.3647 0.288889 45.7647 0.0888889Z" fill="#F7F8FA"/>
<path fill-rule="evenodd" clip-rule="evenodd" d="M14.1648 0.189063C14.6648 0.189063 15.8648 0.0890622 16.2648 0.289062C16.6648 0.489062 17.0648 0.889062 17.1648 1.28906C17.2648 1.78906 17.1648 2.48906 17.1648 3.18906C17.1648 42.5891 17.1648 82.5891 17.1648 121.789C16.9648 122.189 16.7648 122.389 16.4648 122.589C16.1648 122.789 15.6648 122.789 15.0648 122.789C14.5648 122.789 14.1648 122.789 13.7648 122.589C13.4648 122.389 13.1648 122.089 13.1648 121.689C13.0648 120.889 13.1648 119.989 13.1648 119.189C13.1648 106.989 13.1648 94.7891 13.1648 82.4891C13.1648 82.0891 13.2648 81.5891 13.1648 81.1891C13.0648 80.8891 12.8648 80.5891 12.5648 80.2891C12.2648 79.9891 11.8648 79.9891 11.4648 79.8891C9.06476 79.4891 7.26476 78.0891 5.96476 76.5891C5.06476 75.5891 4.26476 74.2891 3.96476 72.7891C3.56476 71.1891 3.56476 69.2891 4.16476 67.6891C5.16476 64.8891 7.16476 63.0891 8.96476 60.7891C10.2648 59.1891 11.3648 57.3891 12.1648 55.1891C12.2648 54.8891 12.3648 54.4891 12.5648 54.0891C12.7648 53.4891 12.9648 52.9891 12.6648 52.4891C12.1648 51.4891 10.7648 51.0891 9.66476 50.5891C6.96476 49.1891 4.26476 47.8891 1.56476 46.5891C0.964758 46.2891 0.264758 46.0891 0.0647581 45.6891C-0.135242 45.1891 0.164758 44.7891 0.464758 44.5891C1.46476 44.0891 2.66476 43.5891 3.76476 42.9891C5.96476 41.8891 8.06476 40.7891 10.3648 39.6891C11.4648 39.1891 12.9648 38.6891 13.1648 37.4891C13.2648 36.8891 13.1648 35.9891 13.1648 35.2891C13.1648 25.4891 13.1648 15.7891 13.1648 5.98906C13.1648 4.48906 13.0648 2.98906 13.1648 1.48906C13.1648 0.689063 13.6648 0.389063 14.1648 0.189063Z" fill="#F7F8FA"/>
<path d="M54.6648 51.2906C53.9648 50.4906 53.6648 49.5906 53.7648 48.5906C53.8648 47.5906 54.2648 46.7906 55.0648 46.0906C55.7648 45.4906 56.5648 45.1906 57.4648 45.1906C58.5648 45.1906 59.4648 45.5906 60.2648 46.4906C60.3648 46.6906 60.5648 46.7906 60.6648 46.9906C60.7648 47.0906 60.7648 47.1906 60.7648 47.3906C60.7648 47.5906 60.6648 47.7906 60.5648 47.8906C60.4648 47.9906 60.2648 48.0906 60.0648 48.0906C59.8648 48.0906 59.6648 47.9906 59.5648 47.8906C59.4648 47.7906 59.3648 47.5906 59.2648 47.4906C58.8648 46.9906 58.3648 46.7906 57.7648 46.6906C57.1648 46.6906 56.5648 46.7906 56.1648 47.1906C55.6648 47.5906 55.4648 48.0906 55.3648 48.6906C55.3648 49.2906 55.4648 49.7906 55.8648 50.2906C56.1648 50.5906 56.7648 50.8906 57.4648 50.9906C58.7648 51.2906 59.7648 51.7906 60.4648 52.5906C61.1648 53.3906 61.5648 54.2906 61.5648 55.3906C61.5648 55.4906 61.5648 55.6906 61.5648 55.7906C61.4648 56.9906 60.9648 57.9906 59.9648 58.7906C59.1648 59.4906 58.1648 59.8906 57.0648 59.8906C55.7648 59.8906 54.5648 59.3906 53.6648 58.2906C53.5648 58.1906 53.4648 57.9906 53.2648 57.8906C53.1648 57.7906 53.1648 57.5906 53.1648 57.4906C53.1648 57.2906 53.2648 57.0906 53.3648 56.9906C53.4648 56.8906 53.6648 56.7906 53.8648 56.7906C54.1648 56.7906 54.3648 56.8906 54.4648 57.0906C54.5648 57.1906 54.6648 57.2906 54.7648 57.3906C55.2648 57.9906 55.9648 58.3906 56.7648 58.3906C57.5648 58.4906 58.2648 58.1906 58.9648 57.6906C59.5648 57.1906 59.9648 56.4906 59.9648 55.6906C60.0648 54.8906 59.7648 54.1906 59.2648 53.5906C58.7648 53.0906 58.0648 52.6906 57.1648 52.4906C56.1648 52.2906 55.3648 51.8906 54.6648 51.2906ZM59.4648 42.0906L57.1648 44.2906C57.0648 44.3906 56.8648 44.4906 56.6648 44.4906C56.4648 44.4906 56.2648 44.3906 56.1648 44.2906C56.0648 44.1906 55.9648 43.9906 55.9648 43.7906C55.9648 43.5906 56.0648 43.3906 56.1648 43.2906L58.4648 41.0906C58.5648 40.9906 58.7648 40.8906 58.9648 40.8906C59.1648 40.8906 59.3648 40.9906 59.4648 41.0906C59.5648 41.1906 59.6648 41.3906 59.6648 41.5906C59.6648 41.7906 59.6648 41.8906 59.4648 42.0906Z" fill="#F7F8FA"/>
<path d="M63.6646 59.0891C63.6646 59.2891 63.5646 59.4891 63.4646 59.5891C63.3646 59.6891 63.1646 59.7891 62.9646 59.7891C62.7646 59.7891 62.5646 59.6891 62.4646 59.5891C62.3646 59.4891 62.2646 59.2891 62.2646 59.0891V45.9891C62.2646 45.7891 62.3646 45.5891 62.4646 45.4891C62.5646 45.3891 62.7646 45.2891 62.9646 45.2891C63.1646 45.2891 63.3646 45.3891 63.5646 45.5891L72.6646 57.0891V46.0891C72.6646 45.8891 72.7646 45.6891 72.8646 45.5891C72.9646 45.4891 73.1646 45.3891 73.3646 45.3891C73.5646 45.3891 73.7646 45.4891 73.8646 45.5891C73.9646 45.6891 74.0646 45.8891 74.0646 46.0891V59.2891C74.0646 59.4891 73.9646 59.6891 73.8646 59.7891C73.7646 59.8891 73.5646 59.9891 73.3646 59.9891C73.1646 59.9891 72.9646 59.8891 72.7646 59.7891L63.6646 48.2891V59.0891Z" fill="#F7F8FA"/>
<path d="M78.1648 58.3891H77.9648V46.6891H78.1648C78.3648 46.6891 78.5648 46.5891 78.6648 46.4891C78.7648 46.3891 78.8648 46.1891 78.8648 45.9891C78.8648 45.7891 78.7648 45.5891 78.6648 45.4891C78.5648 45.3891 78.3648 45.2891 78.1648 45.2891H76.3648C76.1648 45.2891 75.9648 45.3891 75.8648 45.4891C75.7648 45.5891 75.6648 45.7891 75.6648 45.9891C75.6648 46.1891 75.7648 46.3891 75.8648 46.4891C75.9648 46.5891 76.1648 46.6891 76.3648 46.6891H76.5648V58.3891H76.3648C76.1648 58.3891 75.9648 58.4891 75.8648 58.5891C75.7648 58.6891 75.6648 58.8891 75.6648 59.0891C75.6648 59.2891 75.7648 59.4891 75.8648 59.5891C75.9648 59.6891 76.1648 59.7891 76.3648 59.7891H78.1648C78.3648 59.7891 78.5648 59.6891 78.6648 59.5891C78.7648 59.4891 78.8648 59.2891 78.8648 59.0891C78.8648 58.8891 78.7648 58.6891 78.6648 58.5891C78.5648 58.3891 78.3648 58.3891 78.1648 58.3891Z" fill="#F7F8FA"/>
<path d="M68.8647 89.6898H68.6647V77.9898H68.8647C69.0647 77.9898 69.2647 77.8898 69.3647 77.7898C69.4647 77.6898 69.5647 77.4898 69.5647 77.2898C69.5647 77.0898 69.4647 76.8898 69.3647 76.7898C69.2647 76.6898 69.0647 76.5898 68.8647 76.5898H67.0647C66.8647 76.5898 66.6647 76.6898 66.5647 76.7898C66.4647 76.8898 66.3647 77.0898 66.3647 77.2898C66.3647 77.4898 66.4647 77.6898 66.5647 77.7898C66.6647 77.8898 66.8647 77.9898 67.0647 77.9898H67.2647V89.5898H67.0647C66.8647 89.5898 66.6647 89.6898 66.5647 89.7898C66.4647 89.8898 66.3647 90.0898 66.3647 90.2898C66.3647 90.4898 66.4647 90.6898 66.5647 90.7898C66.6647 90.8898 66.8647 90.9898 67.0647 90.9898H68.8647C69.0647 90.9898 69.2647 90.8898 69.3647 90.7898C69.4647 90.6898 69.5647 90.4898 69.5647 90.2898C69.5647 90.0898 69.4647 89.8898 69.3647 89.7898C69.2647 89.6898 69.0647 89.6898 68.8647 89.6898Z" fill="#F7F8FA"/>
<path d="M83.4648 54.6875L81.5648 59.3875C81.5648 59.4875 81.4648 59.5875 81.3648 59.5875C81.2648 59.6875 81.0648 59.7875 80.8648 59.7875C80.6648 59.7875 80.4648 59.6875 80.3648 59.5875C80.2648 59.4875 80.1648 59.2875 80.1648 59.0875C80.1648 58.9875 80.1648 58.8875 80.2648 58.7875L85.4648 45.6875C85.4648 45.5875 85.5648 45.4875 85.6648 45.3875C85.7648 45.2875 85.9648 45.1875 86.1648 45.1875C86.3648 45.1875 86.5648 45.2875 86.6648 45.3875C86.7648 45.4875 86.7648 45.5875 86.8648 45.6875L92.0648 58.7875C92.0648 58.8875 92.1648 58.9875 92.1648 59.0875C92.1648 59.2875 92.0648 59.4875 91.9648 59.5875C91.8648 59.6875 91.6648 59.7875 91.4648 59.7875C91.2648 59.7875 91.0648 59.6875 90.9648 59.5875C90.8648 59.4875 90.8648 59.3875 90.7648 59.3875L88.9648 54.6875H83.4648ZM88.1648 53.2875L86.0648 47.9875L83.9648 53.2875H88.1648Z" fill="#F7F8FA"/>
<path d="M56.5647 60.8906C58.4647 60.8906 60.1647 61.5906 61.4647 62.9906C62.8647 64.3906 63.4647 66.1906 63.4647 68.1906C63.4647 70.1906 62.7647 71.8906 61.4647 73.3906C60.0647 74.7906 58.4647 75.4906 56.5647 75.4906H53.7647C53.5647 75.4906 53.3647 75.3906 53.2647 75.2906C53.1647 75.1906 53.0647 74.9906 53.0647 74.7906V61.5906C53.0647 61.3906 53.1647 61.1906 53.2647 61.0906C53.3647 60.9906 53.5647 60.8906 53.7647 60.8906H56.5647ZM56.5647 73.9906C58.0647 73.9906 59.4647 73.3906 60.4647 72.2906C61.5647 71.1906 62.0647 69.7906 62.0647 68.1906C62.0647 66.5906 61.5647 65.1906 60.4647 64.0906C59.3647 62.9906 58.0647 62.3906 56.5647 62.3906H54.4647V74.0906H56.5647V73.9906Z" fill="#F7F8FA"/>
<path d="M67.4646 70.3906L65.6646 75.0906C65.6646 75.1906 65.5646 75.2906 65.4646 75.2906C65.3646 75.3906 65.1646 75.4906 64.9646 75.4906C64.7646 75.4906 64.5646 75.3906 64.4646 75.2906C64.3646 75.1906 64.2646 74.9906 64.2646 74.7906C64.2646 74.6906 64.2646 74.5906 64.3646 74.4906L69.3646 61.3906C69.3646 61.2906 69.4646 61.1906 69.5646 61.0906C69.6646 60.9906 69.8646 60.8906 70.0646 60.8906C70.2646 60.8906 70.4646 60.9906 70.5646 61.0906C70.6646 61.1906 70.6646 61.2906 70.7646 61.3906L75.9646 74.3906C75.9646 74.4906 76.0646 74.5906 76.0646 74.6906C76.0646 74.8906 75.9646 75.0906 75.8646 75.1906C75.7646 75.2906 75.5646 75.3906 75.3646 75.3906C75.1646 75.3906 74.9646 75.2906 74.8646 75.1906C74.7646 75.0906 74.7646 74.9906 74.6646 74.9906L72.7646 70.3906H67.4646ZM72.1646 68.8906L70.0646 63.5906L67.9646 68.8906H72.1646Z" fill="#F7F8FA"/>
<path d="M54.3648 90.3898C54.3648 90.5898 54.2648 90.7898 54.1648 90.8898C54.0648 90.9898 53.8648 91.0898 53.6648 91.0898C53.4648 91.0898 53.2648 90.9898 53.1648 90.8898C53.0648 90.7898 52.9648 90.5898 52.9648 90.3898V77.2898C52.9648 77.0898 53.0648 76.8898 53.1648 76.7898C53.2648 76.6898 53.4648 76.5898 53.6648 76.5898C53.8648 76.5898 54.0648 76.6898 54.2648 76.8898L63.3648 88.3898V77.3898C63.3648 77.1898 63.4648 76.9898 63.5648 76.8898C63.6648 76.7898 63.8648 76.6898 64.0648 76.6898C64.2648 76.6898 64.4648 76.7898 64.5648 76.8898C64.6648 76.9898 64.7648 77.1898 64.7648 77.3898V90.3898C64.7648 90.5898 64.6648 90.7898 64.5648 90.8898C64.4648 90.9898 64.2648 91.0898 64.0648 91.0898C63.8648 91.0898 63.6648 90.9898 63.4648 90.8898L54.3648 79.3898V90.3898Z" fill="#F7F8FA"/>
<path d="M85.7647 83.7883C85.7647 85.7883 85.0647 87.4883 83.6647 88.9883C82.2647 90.3883 80.5647 91.0883 78.6647 91.0883C76.6647 91.0883 75.0647 90.3883 73.6647 88.9883C72.2647 87.5883 71.5647 85.7883 71.5647 83.7883C71.5647 81.7883 72.2647 80.0883 73.6647 78.5883C75.0647 77.1883 76.7647 76.4883 78.6647 76.4883C80.6647 76.4883 82.2647 77.1883 83.6647 78.5883C85.0647 80.0883 85.7647 81.7883 85.7647 83.7883ZM78.6647 77.9883C77.0647 77.9883 75.7647 78.5883 74.6647 79.6883C73.5647 80.7883 72.9647 82.1883 72.9647 83.7883C72.9647 85.3883 73.5647 86.7883 74.6647 87.8883C75.7647 88.9883 77.0647 89.5883 78.6647 89.5883C80.2647 89.5883 81.5647 88.9883 82.6647 87.8883C83.7647 86.7883 84.3647 85.3883 84.3647 83.7883C84.3647 82.1883 83.7647 80.7883 82.6647 79.6883C81.5647 78.5883 80.2647 77.9883 78.6647 77.9883Z" fill="#F7F8FA"/>
<path d="M53.6648 93.5875C53.4648 93.5875 53.2648 93.4875 53.1648 93.3875C53.0648 93.2875 52.9648 93.0875 52.9648 92.8875C52.9648 92.6875 53.0648 92.4875 53.1648 92.3875C53.2648 92.2875 53.4648 92.1875 53.6648 92.1875H63.3648C63.5648 92.1875 63.7648 92.2875 63.8648 92.3875C63.9648 92.4875 64.0648 92.6875 64.0648 92.8875C64.0648 93.0875 63.9648 93.2875 63.8648 93.3875C63.7648 93.4875 63.5648 93.5875 63.3648 93.5875H59.2648V105.987C59.2648 106.187 59.1648 106.387 59.0648 106.487C58.9648 106.587 58.7648 106.688 58.5648 106.688C58.3648 106.688 58.1648 106.587 58.0648 106.487C57.9648 106.387 57.8648 106.187 57.8648 105.987V93.5875H53.6648Z" fill="#F7F8FA"/>
<path d="M66.3646 92.0898H73.9646C74.1646 92.0898 74.2646 92.1898 74.3646 92.2898C74.4646 92.3898 74.5646 92.5898 74.5646 92.7898C74.5646 92.9898 74.4646 93.1898 74.3646 93.2898C74.2646 93.3898 74.0646 93.4898 73.9646 93.4898H66.9646V98.5898H72.0646C72.2646 98.5898 72.3646 98.6898 72.4646 98.7898C72.5646 98.8898 72.6646 99.0898 72.6646 99.2898C72.6646 99.4898 72.5646 99.6898 72.4646 99.7898C72.3646 99.8898 72.1646 99.9898 72.0646 99.9898H66.9646V105.09H73.9646C74.1646 105.09 74.2646 105.19 74.3646 105.29C74.4646 105.39 74.5646 105.59 74.5646 105.79C74.5646 105.99 74.4646 106.19 74.3646 106.29C74.2646 106.39 74.0646 106.49 73.9646 106.49H66.3646C66.1646 106.49 66.0646 106.39 65.9646 106.29C65.8646 106.19 65.7646 105.99 65.7646 105.79V92.5898C65.7646 92.3898 65.8646 92.1898 65.9646 92.0898C65.9646 92.1898 66.1646 92.0898 66.3646 92.0898Z" fill="#F7F8FA"/>
<path d="M53.4647 108.887C53.4647 108.687 53.5647 108.487 53.6647 108.387C53.7647 108.287 53.9647 108.188 54.1647 108.188C54.3647 108.188 54.5647 108.287 54.6647 108.387C54.7647 108.487 54.8647 108.687 54.8647 108.887V114.787L61.4647 108.387C61.6647 108.287 61.7647 108.188 61.9647 108.188C62.1647 108.188 62.3647 108.287 62.4647 108.387C62.5647 108.487 62.6647 108.687 62.6647 108.887C62.6647 109.087 62.5647 109.287 62.4647 109.387L57.4647 114.287L62.4647 120.988C62.5647 121.088 62.5647 121.287 62.5647 121.387C62.5647 121.587 62.4647 121.788 62.2647 121.988C62.1647 122.088 61.9647 122.087 61.8647 122.087C61.5647 122.087 61.3647 121.987 61.2647 121.787L56.3647 115.287L54.7647 116.887V121.488C54.7647 121.688 54.6647 121.888 54.5647 121.988C54.4647 122.088 54.2647 122.188 54.0647 122.188C53.8647 122.188 53.6647 122.088 53.5647 121.988C53.4647 121.888 53.3647 121.688 53.3647 121.488V108.887H53.4647Z" fill="#F7F8FA"/>
<path d="M66.4647 117.19L64.6647 121.59C64.6647 121.69 64.5647 121.79 64.5647 121.79C64.4647 121.89 64.2647 121.99 64.0647 121.99C63.8647 121.99 63.6647 121.89 63.5647 121.79C63.4647 121.69 63.3647 121.49 63.3647 121.29C63.3647 121.19 63.3647 121.09 63.4647 120.99L68.3647 108.59C68.3647 108.49 68.4647 108.39 68.5647 108.29C68.6647 108.19 68.8647 108.09 69.0647 108.09C69.2647 108.09 69.4647 108.19 69.5647 108.29C69.6647 108.39 69.6647 108.49 69.7647 108.59L74.6647 120.99C74.6647 121.09 74.7647 121.19 74.7647 121.29C74.7647 121.49 74.6647 121.69 74.5647 121.79C74.4647 121.89 74.2647 121.99 74.0647 121.99C73.8647 121.99 73.6647 121.89 73.5647 121.79C73.4647 121.69 73.4647 121.69 73.3647 121.59L71.5647 117.19H66.4647ZM70.9647 115.79L68.9647 110.79L66.9647 115.79H70.9647Z" fill="#F7F8FA"/>
</svg>
